<?xml version="1.0" encoding="utf-8"?>
<!-- Generator: Adobe Illustrator 23.0.1, SVG Export Plug-In . SVG Version: 6.00 Build 0)  -->
<svg version="1.1" id="_x3C_Layer_x3E_" xmlns="http://www.w3.org/2000/svg" xmlns:xlink="http://www.w3.org/1999/xlink" x="0px"
	 y="0px" viewBox="0 0 3600 2000" style="enable-background:new 0 0 3600 2000;" xml:space="preserve">
<style type="text/css">
	.st0{fill:#FFFFFF;}
	.st1{fill:url(#SVGID_1_);}
	.st2{fill:url(#SVGID_2_);}
	.st3{fill:url(#SVGID_3_);}
	.st4{fill:url(#SVGID_4_);}
	.st5{fill:#242E6C;}
	.st6{fill:#FF9792;}
	.st7{fill:#1B2251;}
	.st8{fill:#7F22BA;}
	.st9{fill:#F24B46;}
	.st10{fill:#FF7D78;}
	.st11{fill:url(#SVGID_5_);}
	.st12{fill:#F9795A;}
	.st13{fill:#EF7575;}
	.st14{fill:#C0D3F8;}
	.st15{fill:#9E30CA;}
	.st16{fill:url(#SVGID_6_);}
	.st17{fill:#DFDCF7;}
	.st18{fill:#B1C9F6;}
</style>
<g>
	<rect class="st0" width="3600" height="2000"/>
	<g>
		<linearGradient id="SVGID_1_" gradientUnits="userSpaceOnUse" x1="3383.7339" y1="2000" x2="3383.7339" y2="1466.0684">
			<stop  offset="0" style="stop-color:#C5CFFF"/>
			<stop  offset="0.248" style="stop-color:#D3DCFF"/>
			<stop  offset="0.5471" style="stop-color:#DCE4FF"/>
			<stop  offset="1" style="stop-color:#DFE6FF"/>
		</linearGradient>
		<path class="st1" d="M3600,1466.1c0,0-432.5,76.2-432.5,533.9h432L3600,1466.1z"/>
		<linearGradient id="SVGID_2_" gradientUnits="userSpaceOnUse" x1="525.1998" y1="2000" x2="525.1998" y2="1591.6334">
			<stop  offset="0" style="stop-color:#C5CFFF"/>
			<stop  offset="0.248" style="stop-color:#D3DCFF"/>
			<stop  offset="0.5471" style="stop-color:#DCE4FF"/>
			<stop  offset="1" style="stop-color:#DFE6FF"/>
		</linearGradient>
		<path class="st2" d="M0,1591.6V2000h1050.4C1050.4,2000,917.8,1591.6,0,1591.6z"/>
		<linearGradient id="SVGID_3_" gradientUnits="userSpaceOnUse" x1="2316.6101" y1="-9.094947e-13" x2="2316.6101" y2="896.0961">
			<stop  offset="0" style="stop-color:#6615B2"/>
			<stop  offset="0.2956" style="stop-color:#8D28C3"/>
			<stop  offset="0.5849" style="stop-color:#AC37D0"/>
			<stop  offset="0.8295" style="stop-color:#BF40D8"/>
			<stop  offset="1" style="stop-color:#C643DB"/>
		</linearGradient>
		<path class="st3" d="M3600,0v770.3c0,0-1990.6,585.7-2566.8-770.3H3600z"/>
		<linearGradient id="SVGID_4_" gradientUnits="userSpaceOnUse" x1="1170.4504" y1="433.4937" x2="1170.4504" y2="9.094947e-13">
			<stop  offset="0" style="stop-color:#F9795A"/>
			<stop  offset="1" style="stop-color:#EB3668"/>
		</linearGradient>
		<path class="st4" d="M0,343.5c0,0,734.3,239.1,1345-62.2s995.9-281,995.9-281L0,0V343.5z"/>
	</g>
</g>
<g>
	<g>
		<path class="st5" d="M2518.6,1754.6c-66.6-10.7-116.9,12.6-165.3,5.9c-38.6-5.3-58.7-44.4-110.5-55.4c12.3-7.3,26.7-16.4,33.6-23
			c13.3-12.8,32.5-38.5,0-39.6c-23.4-0.7-41.6,38.2-50,60.1c-7.7-0.6-16-0.7-25,0c10.7-34.5,31.6-101.2,36.7-114
			c6.9-17.4-22.2-75.6-56.6-10.3c-24.1,45.8-7.7,98.7,4.2,126.2c-9.4,1.5-18.3,3.7-26.8,6.4c-28.4-64.8-118.8-249.6-216.7-226.6
			c-106.8,25,122,149.3,179.7,241.4c-47.1,21.9-88.6,48.4-160.2,29c-190.3-51.5-205.4,64.4-205.4,64.4l850.3,0.3
			C2606.6,1819.2,2585.2,1765.3,2518.6,1754.6z"/>
		<g>
			<path class="st6" d="M2287.3,1337.5c0.9,8.2,12.5,7.9,25.5,5.9c13.1-2,9.7,1.5,28.1,1.1c18.4-0.4,24.5-6.6,25.3-9.3
				c0.7-2.4-8.2-4-17.8-6c-1.2-0.2-2.4-0.5-3.6-0.8c-10.8-2.4-18.1-10.1-27.5-16.8c-8.9-6.3-14.9-35.3-14.9-35.3l-26.2-0.2
				c0,0,8.2,26.2,12.5,35.3c2.5,5.4-0.2,12.3-1,17.4C2287.4,1331.7,2287,1334.6,2287.3,1337.5z"/>
			<path class="st7" d="M2312.8,1343.4c13.1-2,9.7,1.5,28.1,1.1c18.4-0.4,24.5-6.6,25.3-9.3c0.7-2.4-8.2-4-17.8-6l-0.1,0.2
				c0,0-11.6,6.8-26.8,5.7c-12.4-0.8-25.2-5.6-33.7-6.2c-0.5,2.8-0.9,5.7-0.6,8.6C2288.2,1345.7,2299.8,1345.4,2312.8,1343.4z"/>
			<path class="st6" d="M2082.8,1336.2c0.6,8.2,12.1,8.4,25.3,6.9c13.2-1.5,9.6,1.8,28,2.2c18.4,0.3,24.8-5.7,25.7-8.3
				c0.8-2.3-8-4.3-17.5-6.7c-1.2-0.3-2.4-0.6-3.6-0.9c-10.7-2.8-17.7-10.8-26.8-17.8c-8.6-6.7-1.5-34.3-1.5-34.3l-19.8-9.4
				c0,0-2.7,28.5-4.2,42.9c-0.6,5.9-3.5,11.8-4.6,16.9C2083.1,1330.4,2082.6,1333.3,2082.8,1336.2z"/>
			<path class="st7" d="M2108.1,1343.1c13.2-1.5,9.6,1.8,28,2.2c18.4,0.3,24.8-5.7,25.7-8.3c0.8-2.3-8-4.3-17.5-6.7l-0.1,0.2
				c0,0-11.9,6.3-27,4.7c-12.3-1.3-24.9-6.5-33.4-7.5c-0.6,2.8-1.1,5.6-0.9,8.5C2083.4,1344.4,2094.9,1344.5,2108.1,1343.1z"/>
			<path class="st8" d="M2127.4,926.3c0,0-5.5,26.6-11,161.6c0,0-10.2,25-17.6,55.6c-7.4,30.6-12.6,158.1-12.6,158.1s3,4.3,11.9,4.8
				c7.3,0.4,13-2.8,13-2.8s51.5-167,76.6-231.9c25.1-64.9,39.8-157.5,39.8-157.5L2127.4,926.3z"/>
			<path class="st8" d="M2189.3,937.7c0,0,4.1,26.9,45.6,155.4c0,0-0.9,27,2.7,58.2c3.6,31.2,45.7,154.2,45.7,154.2s5.6,1.9,14-0.3
				c7.8-2.1,13.9-6.7,13.9-6.7s-16.1-175.8-15.1-245.3c1.1-69.5-17.2-161.5-17.2-161.5L2189.3,937.7z"/>
			<path class="st9" d="M2263,565.4c-6.5-4.1-14.5-5-20.2-4.9c1.5-1.4,4.4-1.8,4.4-1.8c-3.5-0.7-11.4,2.4-11.4,2.4
				c-47.6-21.1-58.8,49.9-58.6,66.6c0.2,16.6-0.6,35.7-25.6,49.4c-49.1,26.9-11.5,80-11.5,80c-8.8,25.4,23.9,56.4,23.9,56.4
				c-0.6-13.5,61.3-99.3,94.6-118.8c8.4-11.2,12.2-31.5,12.5-33.1c-2.2,16.1-5.4,25.1-8.1,30.1
				C2291.6,667.8,2280.2,576.4,2263,565.4z"/>
			<path class="st6" d="M2252.6,685.4c0.2,0.1-15.6,8.3-27.5,5c-11.2-3-18.4-17.5-18.3-17.5c4.7-0.9,6.1-7.4,6-35.3l2.1,0.4
				l34.6,6.9l1.3,0.3c0,0-0.8,11.3-0.8,21.9c0,2.3,0,4.5,0.1,6.5C2250.4,679.8,2251.1,684.7,2252.6,685.4z"/>
			<path class="st10" d="M2250,667c0,2.3,0,4.5,0.1,6.5c-20.1-0.8-31.7-23.8-36.1-33.9l35.6,5.2l1.3,0.3
				C2250.9,645.1,2250.1,656.4,2250,667z"/>
			<path class="st9" d="M2211.3,634.1c0,0-10.5-16.6-13.1-30.9c-1.8-10.2,3.4-47.8,41.2-42.4c0,0,11,1.1,21.3,8.1
				c8.2,5.5,20.1,17.5,6.8,50.4l-3.4,11.1L2211.3,634.1z"/>
			<path class="st6" d="M2253,661.8c0,0-47.1-6.2-42.8-35.5c4.3-29.3,1.2-49.8,31.4-47.1c30.3,2.7,34.5,14.8,35.4,24.9
				C2277.9,614.3,2265.4,662.7,2253,661.8z"/>
			<path class="st9" d="M2263.2,581.7c0,0-18,32.4-38.5,34.6c-20.5,2.1-28.3-4.4-28.3-4.4s16.9-9.8,23.2-30.3
				C2219.6,581.5,2255.9,563.9,2263.2,581.7z"/>
			<path class="st9" d="M2259.5,584c0,0,8.5,9.1,9.7,16.9c1.2,7.8,0,23.3,4.6,23.5c0,0,13.2-21.9,4.2-36.7
				C2268.6,571.9,2259.5,584,2259.5,584z"/>
			<path class="st9" d="M2572.5,981.9c-9.9-20.9-37.4-38.3-60.5-38.3c-17.1,0-32.2,5.8-43.9,15.3c-6.7,5.4-16.7,1.9-18.6-6.6
				l-20.3-94.2c-3-13.7-16.5-22.5-30.2-19.5l-328,70.6c-13.4,2.9-22,16.1-19.1,29.5l70.5,327.6c2,9.4,8.9,16.4,17.4,19.2l-4.3,1.2
				h12.7l0.1,0c1.6,0,3.1-0.2,4.7-0.6l7.1-1.5l0,0l0,0l84.2-18.1c11.8-2.5,16.6-16.8,8.7-25.9c-7.7-8.8-13.2-19.7-15.5-32
				c-6.6-34.8,14.9-69.3,49.1-78.5c38-10.3,76.4,13.4,84.6,51.5c3.1,14.3,1.4,28.5-3.9,41c-2.1,4.9-0.4,9.9,3.2,12.8l-4.9,2.4
				l11.4,0v0c0.9,0,1.7-0.1,2.6-0.2l100.5-21.6c13.7-3,22.5-16.5,19.5-30.2l-20.1-93.6c-1.9-8.7,6-16.3,14.6-14
				c9.9,2.5,20.6,2.9,31.3,0.6C2567.6,1069.6,2592.1,1023.5,2572.5,981.9z"/>
			<linearGradient id="SVGID_5_" gradientUnits="userSpaceOnUse" x1="2039.8899" y1="1062.5123" x2="2567.7954" y2="1062.5123">
				<stop  offset="0" style="stop-color:#F9795A"/>
				<stop  offset="1" style="stop-color:#FFEFE9"/>
			</linearGradient>
			<path class="st11" d="M2500.4,943.7c-17.1,0-32.2,5.8-43.9,15.3c-6.7,5.4-16.7,1.9-18.6-6.6l-20.3-94.2
				c-3-13.7-16.5-22.5-30.2-19.5l-328,70.6c-13.4,2.9-22,16.1-19.1,29.5l70.5,327.6c3,13.9,16.7,22.8,30.7,19.8l91.3-19.7
				c11.8-2.5,16.6-16.8,8.7-25.9c-7.7-8.8-13.2-19.7-15.5-32c-6.6-34.8,14.9-69.3,49.1-78.5c38-10.3,76.4,13.4,84.6,51.5
				c3.1,14.3,1.4,28.5-3.9,41c-3.5,8.1,3.7,16.8,12.3,14.9l100.5-21.6c13.7-3,22.5-16.5,19.5-30.2l-20.1-93.6
				c-1.9-8.7,6-16.3,14.6-14c9.9,2.5,20.6,2.9,31.3,0.6c42.1-9.1,66.6-55.1,47-96.7C2551,961,2523.6,943.7,2500.4,943.7z"/>
			<path class="st6" d="M2380.4,819.1c0,0,20.5,3.4,25.8,16.7c5.4,13.3-2.1,22.3-5,22.3c-2.9,0-8.4-2.2-11-9.1
				C2387.6,842.1,2380.4,819.1,2380.4,819.1z"/>
			<path class="st6" d="M2098.8,878.5c0,0,23,0,31.2,13.5c8.3,13.6,1.7,24.8-1.4,25.3c-3.2,0.5-9.6-0.8-13.6-7.9
				C2110.8,902.3,2098.8,878.5,2098.8,878.5z"/>
			<path class="st5" d="M2381,834.5c-2-0.4-10.9-1.5-22.3-3.3c-20.8-3.3-49.9-9-59.7-18c-2.6-2.4-8.8-15.9-15.2-31.3
				c-6.5,34.1-6.8,60.3-5.1,80.2l-140.9,30.3c12.1-24.4,30.8-54.7,27.3-79.2c-1.3-9.1-6.3-21.6-8.1-35.6c-0.2-1.2-0.3-2.4-0.4-3.6
				c-19.8,16.3-42.6,34.2-43.1,37.8c-0.9,6,14.5,72.6,14.5,72.6c-3.8,8.8-20.4,6.9-20.4,6.9c-15.6-11.1-38.4-74-36.6-88
				c1.8-13.9,58.5-93.4,72.3-112.4c13.6-18.8,63.1-18.3,64.2-18.3h0c0,0,0,0,0,0c39.4,23.6,42.9,4,42.9,4s35.5,6.8,41.6,17.2
				c6.1,10.5,32.9,90,34.8,92.9c4,5.9,68.7,29.3,69.8,36.1C2397.7,829.8,2386.8,835.8,2381,834.5z"/>
			<path class="st7" d="M2186.9,882l-49.1,10.5c12.2-24.4,28.3-54.7,24.8-79.1c-1.3-9.1-4.3-19.9-5.7-33.9c-0.1-1.4-0.4-5.4-0.4-5.4
				s34.8,27.4,35.4,57C2192.3,846.4,2189.6,866.6,2186.9,882z"/>
			<path class="st7" d="M2360,831.5c-21.1-3.3-50.5-9-60.4-18c-2.7-2.4-8.9-15.9-15.4-31.3c0,0-2.3-24.8,4.2-23.9
				c6.5,0.9,16,44.9,22.8,47.7C2317.4,808.4,2351,821.3,2360,831.5z"/>
		</g>
		<g id="man_2_">
			<g>
				<path class="st7" d="M3399.7,1776.2c-3,10-16.7,16.7-18.6,29c-0.9,6-3.1,10.6-6,13.8h-42.8c0.4-2.4,2.3-4.9,7.9-6.1
					c11.9-2.6,16.4-17,15.6-30.4c-0.3-5.6-0.2-12,0.1-17.5c0.4-7.7,1-13.7,1-13.7l25.2-5.9l2.7,3.4l2.5,3.3
					C3387.4,1752.1,3402.6,1766.2,3399.7,1776.2z"/>
				<path class="st7" d="M3200.5,1819H3114c2-2.3,5.3-4.5,10.9-5.4c13.3-2.2,36.4-9.9,41.5-26.9c0.2-0.5,0.3-1.1,0.4-1.7
					c4.1-18.2,33.8,5.6,33.8,5.6s0.1,0.7,0.2,2C3201.4,1797.6,3202.6,1811.5,3200.5,1819z"/>
				<path class="st12" d="M3128.5,1337c0,0,4.5,56.3,9.8,123.9c7.2,91.9,15.9,204.8,16.7,226.1c1.5,37.1,7.4,96.5,7.4,96.5
					s14.1,14.1,42.3,8.2c0,0,25.1-84.8,32.3-174.5c0.1-1.5,0.2-3,0.3-4.4c6.7-91.3,17.1-283.6,17.1-283.6L3128.5,1337z"/>
				<path class="st9" d="M3128.5,1337c0,0,4.5,56.3,9.8,123.9l98.8,156.3c0.1-1.5,0.2-3,0.3-4.4c6.7-91.3,17.1-283.6,17.1-283.6
					L3128.5,1337z"/>
				<path class="st12" d="M3149.1,1343.7c0,0,81.3,203.8,134.8,299.6c53.5,95.8,70.2,122.5,70.2,122.5s30.6-12.3,33.4-20.6
					c0,0-20.4-184.9-56.2-230c-20.2-25.5-44-101.9-45.1-128.6c-1.1-26.7-7.2-79.6-7.2-79.6L3149.1,1343.7z"/>
			</g>
			<path class="st13" d="M3190.8,1029.1c-3.6-21.3-3.7-34-3.7-34l41.2-33.2c-1.5,45.7,27.8,67.7,27.8,67.7s-55,27.1-86.7,17
				C3169.3,1046.6,3177.1,1036.6,3190.8,1029.1z"/>
			<path class="st10" d="M3177.3,994.4c0,0,52.5,8.7,57.4-24c4.9-32.8,15-53.7-18.3-60.7c-33.3-7-41.7,4.6-46,15.1
				C3166.1,935.3,3163.8,991.3,3177.3,994.4z"/>
			<g>
				<path class="st14" d="M2993,1061.9l-11.2-6.9c0,0-13.9-20.6-37.7-7.8c0,0-9.4,6-3.1,11c6.3,5,4.6,2.2,13.4,9.5
					c8.8,7.3,20.1,9.9,27.4,5.9l9.4-0.9L2993,1061.9z"/>
				<path class="st8" d="M2979.8,1064.1c2.9-9,4.2-9.8,4.2-9.8s90.3,10.7,98.9,11.3c8.5,0.6,126.8-23.7,126.8-23.7l55.9,67.8
					c0,0-164.7,6.2-186.2,4.2c-35.6-3.3-100.2-36.5-100.2-36.5S2977.5,1071.1,2979.8,1064.1z"/>
			</g>
			<path class="st15" d="M3285,1317.4c0.2,3.5-7.1,7.3-10.2,8.7c-23.6,10.6-45.6,17.9-70.4,20.3c-29.4,3-64.2-3.6-76.2-3.4
				c-1.3,0-2.4-0.5-3.3-1.3c-0.8-0.6-1.4-36.6-0.8-81.9c0-1.8,0-3.7,0.2-5.4v-0.6c0-4.7,0.1-9.5,0.2-14.4
				c0.3-13.3,0.8-26.9,1.4-40.4c0.9-19.9,2-39.5,3.7-56.9c1.7-18.1,3.9-33.8,6.7-44.9c6.4-25.6,21-42.5,34.4-54.9l11-9.7
				c11,2.2,22.6,1.6,34.2-4.1c12.6-6.2,26.3-12.9,28.5-11.3c17,12.7,28.4,41.5,34.2,78c3.1,19.7,4.7,41.6,4.6,64.5
				c0,8.8-0.3,17.7-0.8,26.7c-2.8,48.3,0.1,90.2,1.7,114.5C3284.5,1308,3284.9,1313.5,3285,1317.4z"/>
			<path class="st8" d="M3245.5,1094.2c0,0-25.4,118.7-120.9,145.2c0.3-13.3,0.8-26.9,1.4-40.4c0.9-19.9,2-39.5,3.7-56.9
				c1.7-0.9,3.3-1.6,4.8-2C3166.8,1129.4,3245.5,1094.2,3245.5,1094.2z"/>
			<path class="st7" d="M3006,870.8l-331.9-52.7c-14.1-2.2-27.4,7.4-29.6,21.5l-14.7,92.5c-0.7,4.3,0.4,16.3,0.4,16.3l12,1.8
				c0.7,0.1,1.4,0.3,2.1,0.3l0,0l0,0c2.2,0.2,4.4-0.1,6.7-0.9c11-4,23.2-5.2,35.6-2.9c34.9,6.4,59.4,39,55.7,74.3
				c-4.1,39.3-40.2,66.6-78.8,60.5c-14.5-2.3-27.2-9-37-18.5c-1.9-1.8-4.2-2.8-6.5-3.1l0,0l-12.5-1.9l-15.6,112.8
				c-2.2,13.9,7.3,27,21.2,29.2l94.8,15.1c8.8,1.4,13,11.5,7.8,18.8c-6,8.4-10.2,18.2-11.9,29c-6.8,42.6,27.4,82.3,73.4,79
				c23.2-1.7,49.3-21.1,57.7-42.7c6.2-16,6.2-32.2,1.5-46.6c-2.7-8.2,4.3-16.3,12.9-15l95.4,15.1c13.9,2.2,27-7.3,29.2-21.2
				l52.8-332.2C3028.9,885.7,3019.6,873,3006,870.8z"/>
			<path class="st5" d="M2822.7,1297.3c6.2-16,6.2-32.2,1.5-46.6c-2.7-8.2,4.3-16.3,12.9-15l95.4,15.2c13.9,2.2,27-7.3,29.2-21.2
				l52.8-332.2c2.2-13.6-7.1-26.4-20.7-28.5l-331.9-52.7c-14.1-2.2-27.4,7.4-29.6,21.5l-14.7,92.5c-1.9,12,9.7,21.6,21.1,17.5
				c11-4,23.2-5.2,35.6-2.9c34.9,6.4,59.4,39,55.7,74.3c-4.1,39.3-40.2,66.6-78.8,60.5c-14.5-2.3-27.2-9-37-18.5
				c-6.3-6.2-17-2.7-18.4,6.1l-16.2,101.8c-2.2,13.9,7.3,27,21.2,29.2l94.8,15.1c8.8,1.4,13,11.5,7.8,18.8c-6,8.4-10.2,18.2-11.9,29
				c-6.8,42.6,27.4,82.3,73.4,79C2788.2,1338.3,2814.3,1318.9,2822.7,1297.3z"/>
			<g>
				<path class="st10" d="M2993.4,1138.5l-13.6-2.3c0,0-15.6-22.5-42.7-9.9c0,0-10.8,6-3.6,11.6c7.1,5.6,5.2,2.5,15.1,10.7
					c9.8,8.1,22.7,11.4,31,7.4l10.6-0.6L2993.4,1138.5z"/>
				<path class="st15" d="M2983,1145.4c0.4-10,5.8-11.1,5.8-11.1s103.4-6.8,112.3-8.6c8.9-1.7,91.2-69.9,91.2-69.9
					s31.8-28.6,54.1-19c19.4,8.4,25.4,24.9,26.4,40.2c1.2,18.1-9.1,35.1-25.5,42.8c-37,17.3-110.9,51.2-127.7,54.1
					c-37.5,6.5-133.8-14.4-133.8-14.4S2982.6,1153.3,2983,1145.4z"/>
			</g>
			<path class="st7" d="M3170.4,924.8c0,0-21.3-15.8-7.4-40.3c0,0,16.8,5.6,40.6,0c23.8-5.6,45.1,2.3,47.9,10.6
				c0,0,9.3,3.7,10.2,17.6c0.9,13.9-26.9,57.6-26.9,57.6s-5.9-7.4-4.3-12.5c1.6-5.1,6.7-16.4,0.5-16.4s-8.3,9.3-10.9,5.6
				c-2.5-3.7,2.1-19.2-5.3-21.8C3207.3,922.6,3178.8,929.5,3170.4,924.8z"/>
		</g>
		<path class="st9" d="M2446.5,1807.1l-93.8-425.9h25.8c6.1,0,11.1-5,11.1-11.1v-14.4c0-6.1-5-11.1-11.1-11.1H2051
			c-6.1,0-11.1,5-11.1,11.1v14.4c0,6.1,5,11.1,11.1,11.1h33.2l-93.8,425.9c-1.3,5.7,2.4,11.4,8.1,12.7c5.7,1.3,11.4-2.4,12.7-8.1
			l94.8-430.5h225l94.8,430.5c1.3,5.7,7,9.4,12.7,8.1l0,0C2444.2,1818.6,2447.8,1812.9,2446.5,1807.1z"/>
		<g>
			<path class="st5" d="M3068.6,1546.3c-34.7-33.3-159.7,177-159.7,177S3103.4,1579.6,3068.6,1546.3z"/>
			<path class="st5" d="M3064.5,1643.5c-30.7-12.3-129,91.3-151.1,115.2c-16.9-2.3-35.5-3.7-55.8-4.1
				c-155.6-2.8-226.1,67.7-226.1,67.7l433.9,1.5c0,0-38.4-48.8-147.5-64.5c26.6-12.6,105.5-49.2,134.1-56.3
				C3086.7,1694.5,3099.2,1657.4,3064.5,1643.5z"/>
		</g>
		<g>
			<path class="st9" d="M2942.1,1432.4h-93.7c-12.1,0-19.8,13-14,23.6c5.7,10.2-14.3,99-56.2,101.3c-39.4,2.2-72.1-29.3-72.1-68.3
				c0-14.7,4.6-28.3,12.5-39.4c5.1-7.2,0-17.2-8.9-17.2h-103.1c-14.1,0-25.5,11.4-25.5,25.5c0,0-9.3,110.6-17.3,106.7
				c-8.2-4.1-17.3-6.6-27-7.1l0,0h-0.1c-1.2-0.1-2.3-0.1-3.5-0.1c-1.2,0-18.1-0.3-18.1-0.3l-2.6,136.7l14.7,0.2
				c14-0.4,26.2-1.7,37-7.2c7.7-3.9,16.8,1.7,16.8,10.3v96.6c0,14.1,11.4,25.5,25.5,25.5H2943c13.8,0,24.9-11.2,24.9-24.9v-336
				C2967.9,1444,2956.4,1432.4,2942.1,1432.4z"/>
			<linearGradient id="SVGID_6_" gradientUnits="userSpaceOnUse" x1="2446.7898" y1="1625.5546" x2="2949.8022" y2="1625.5546">
				<stop  offset="0" style="stop-color:#F9795A"/>
				<stop  offset="1" style="stop-color:#FFEFE9"/>
			</linearGradient>
			<path class="st16" d="M2500,1692.3c16.8,3.6,32.8,1.1,46.2-5.8c7.7-3.9,16.8,1.7,16.8,10.3v96.6c0,14.1,11.4,25.5,25.5,25.5
				h336.4c13.8,0,24.9-11.2,24.9-24.9v-336c0-14.3-11.6-25.9-25.9-25.9h-93.7c-12.1,0-19.8,13-14,23.6c5.7,10.2,8.8,22.1,8.5,34.7
				c-0.8,35.5-29.2,64.8-64.7,66.6c-39.4,2.1-72.1-29.3-72.1-68.3c0-14.7,4.6-28.3,12.5-39.4c5.1-7.2,0-17.2-8.9-17.2h-103.1
				c-14.1,0-25.5,11.4-25.5,25.5v96c0,8.9-9.3,14.7-17.3,10.7c-9.2-4.6-19.6-7.2-30.5-7.2c-43.1,0-76.9,39.9-66.5,84.8
				C2454,1664.6,2477.3,1687.4,2500,1692.3z"/>
		</g>
		<path class="st5" d="M1526,1820.8l60.5,0.4c0,0-2.1-14.6-42.8-18.4l0,0c-15.8-43.8-62.1-161.7-102.4-156.2
			c-39.7,5.5,54.4,113.7,92.7,155.7c-5.4,0-10.5,0.5-15.1,1.2c-9.2-18.4-27.5-44.3-56.9-43.1c-31.2,1.3,11.3,29.8,40.6,47.3
			c-14.8,5.3-22.9,12.7-22.9,12.7l45.6,0.3c0.5,0.3,0.8,0.5,0.8,0.5S1526.1,1821.1,1526,1820.8z"/>
		<g>
			<g>
				<path class="st10" d="M1742,1332.3l8.9,7.3c0,0,24.5-8.8,30,20.3c0,0,1.5,12.4-6.4,12.4c-7.8,0-4.6-1.4-15.7-1
					c-11.1,0.3-20.3-5.5-22-14.6l-5.3-7.6L1742,1332.3z"/>
				<path class="st17" d="M1741,1347.9c7.1-7.5,6.6-13,6.6-13s-82.6-67.7-91-73.2c-5.7-3.8-66.6-57.7-95-90.6
					c-14.1-16.3-31.6-10-51.6-4.2l-16.5,4.7c-19.9,5.7-25.1,33.5-8.7,47c46,38.1,122.4,80.9,136.7,89.9c35.5,22.3,105,48.9,105,48.9
					S1734.9,1354.3,1741,1347.9z"/>
			</g>
			<path class="st8" d="M1837.7,1762.9c0,0,20.1,15,50.8,7.1c0,0,24.8-5.6,30.2,6.7c0,0-38,19.3-47.6,24.6
				c-7.2,4-14.8,10.3-20.2,15.1c-4.2,3.8-10.8,3.3-14.4-1.1c-1.7-2.1-3.6-4.5-5.7-7.3c-5.9-7.9-19.5-33.6-19.5-33.6L1837.7,1762.9z"
				/>
			<path class="st14" d="M1847.1,1755.9c0,0-12.2,28.2-40.4,23c0,0-57.5-47.5-97-96.9c-12.8-16-23.7-32.3-30.1-47.1
				c-26.2-60.6-96.8-150.9-141.7-196.7l112.3-40.6c0,0,36,72.4,83.9,161.3C1768.6,1623,1809.2,1695.6,1847.1,1755.9z"/>
			<path class="st18" d="M1734.1,1558.9l-24.4,123.2c-12.8-16-23.7-32.3-30.1-47.1c-26.2-60.6-96.8-150.9-141.7-196.7l112.3-40.6
				C1650.2,1397.6,1686.2,1470,1734.1,1558.9z"/>
			<path class="st8" d="M1641.9,1778.9c0,0-1.2,22.5,26,25.5c0,0,15.6,0.1,15.6,14.4l-79.2,0.3c0,0-2.3-5.8-2.9-18.1
				c-0.4-9.5,9.2-34.3,9.2-34.3L1641.9,1778.9z"/>
			<path class="st14" d="M1613.3,1397.6c0,0,50,55,81.8,154.1c17.3,53.9-31.7,189.4-41.2,236.5c0,0-32.8,2.8-55.3-5.9
				c0,0-1.7-97.3,11.4-172.2c7.4-42-65.9-89.7-97.9-165.5c-21.8-51.6,4.7-50.7,37.3-51.9L1613.3,1397.6z"/>
			<path class="st6" d="M1555.6,1152.3c-27.8,15.7-84.8,1.2-84.8,1.2s23.1-26.5,12.6-69.1l21.9,11.1l23.5,11.9c0,0,1.5,7.5,2.6,21
				c0.3,3.5,0.5,7.4,0.7,11.6C1546.2,1144.4,1555.6,1152.3,1555.6,1152.3z"/>
			<path class="st12" d="M1657.7,1394.8c0,4.9-5.6,7.2-6.8,7.5c-11.2,2.1-42.6,14.3-70.8,17c-23.8,2.5-45.9,0.1-70.1-4.7
				c-3.2-0.6-10.8-2.7-11.3-5.8c-0.7-3.4-93.6-189.4-21.4-269.3c1.7-1.9,16,1.5,29,4.6c12,2.9,23.1,1.3,32.9-2.7l12.2,6.4
				c15,8.4,43.4,38.1,46.8,61.4c1.7,11.9,8.5,20.6,10.4,31.1c0.7,3.9,1.5,7.6,2.2,11.3c1.5,7.2,3,14.1,4.6,20.6
				c4.2,17.6,8.7,32.8,13.1,46c4.7,13.9,9.3,25.5,13.4,35.2c5.3,12.6,9.8,22,12.6,29.2C1656.5,1387.6,1657.7,1391.5,1657.7,1394.8z"
				/>
			<path class="st9" d="M1654.6,1382.5c-131.2-61.8-176.6-180.4-176.6-180.4s106.6,39.3,132.8,49.5c1.5,7.2,3,14.1,4.6,20.6
				c4.2,17.6,8.7,32.8,13.1,46c4.7,13.9,9.3,25.5,13.4,35.2C1647.2,1365.9,1651.7,1375.3,1654.6,1382.5z"/>
			<path class="st7" d="M2025,1251.1l-28.1-89.1c-2.7-8.7-11.7-12.7-19.5-10.5l0,0l0,0c-0.4,0.1-0.8,0.3-1.2,0.4l-9.9,3.3
				c0,0-15.4,15.9-26.5,19.1c-34,9.8-66.3-8.3-78.7-41.5c-13.8-36.9,2.2-77.4,39.3-89.1c12.7-4,37.7,3.5,37.7,3.5l10-3.3
				c5.4-1.7,9.2-7.5,7.2-13.7l-30.9-98.1c-4.2-13.4-18.5-20.8-31.9-16.6l-91.3,28.8c-8.5,2.7-16.7-4.5-15.4-13.2
				c1.6-10.1,1-20.8-2.3-31.2c-12.9-41-61.1-61.2-100.6-37.8c-19.9,11.8-34.6,40.8-32.5,63.8c1.6,17,8.8,31.5,19.4,42.2
				c6,6.1,3.4,16.5-4.8,19.1l-91.9,29c-13.4,4.2-20.8,18.5-16.6,31.9l100.9,320c4.1,13.1,18.1,20.4,31.2,16.2l319.6-100.8
				C2021.8,1279.2,2029.3,1264.7,2025,1251.1z"/>
			<path class="st5" d="M1640.7,929.1c1.6,17,8.8,31.5,19.4,42.2c6,6.1,3.4,16.5-4.8,19.1l-91.9,29c-13.4,4.2-20.8,18.5-16.6,31.9
				l100.9,320c4.1,13.1,18.1,20.4,31.2,16.2l319.6-100.8c13.6-4.3,21.1-18.8,16.8-32.4l-28.1-89.1c-3.6-11.5-18.3-15-26.6-6.2
				c-8,8.5-18.4,15-30.5,18.5c-34,9.8-70.4-8.4-82.8-41.5c-13.8-36.9,6.2-77.4,43.3-89.1c14-4.4,28.3-4.1,41.2,0.1
				c8.4,2.7,16.4-5.2,13.7-13.6l-30.9-98.1c-4.2-13.4-18.5-20.8-31.9-16.6l-91.3,28.8c-8.4,2.7-16.7-4.5-15.4-13.2
				c1.6-10.1,1-20.8-2.3-31.2c-12.9-41-61.1-61.2-100.6-37.8C1653.2,877.1,1638.5,906,1640.7,929.1z"/>
			<g>
				<path class="st6" d="M1731.3,1346.7l11.3,4.2c0,0,22.7-16,36.8,10.1c0,0,5.1,11.4-3,13.9c-8.1,2.5-5.1,0.1-16.5,3.9
					c-11.4,3.8-22.6,1.1-26.9-7.1l-7.7-5.7L1731.3,1346.7z"/>
				<path class="st12" d="M1740.6,1362.7c4.2-10.9,6.1-15.9,6.1-15.9s-85.6-69.8-94.4-75.8c-5.9-4.1-65.1-48.3-94-82.8
					c-14.3-17.1-36.9-24.9-58.7-20.3l-18,3.8c-21.7,4.6-28.8,32-11.9,46.5c47.4,40.7,127.4,87.8,142.3,97.6
					c37,24.3,118.9,58.5,118.9,58.5S1737.3,1371.3,1740.6,1362.7z"/>
			</g>
			<path class="st10" d="M1531.3,1128.5c-27.4,1.5-45.2-21.1-45.2-21.1s12.4-6.9,19.1-11.9l23.5,11.9
				C1528.7,1107.4,1530.2,1115,1531.3,1128.5z"/>
			<path class="st6" d="M1542.9,1100.4c0,0-41.5,29.8-59.6,3.7c-18.1-26.1-35.7-39.9-10-60c25.7-20.1,37.8-13.8,46-6.5
				C1527.5,1044.8,1553.3,1091.9,1542.9,1100.4z"/>
			<path class="st7" d="M1523.7,1013.9c-1.5-10-4.8-17.1-4.8-17.1s-2.6,10.8-22.3,9.3c-19.7-1.5-50.9,1.9-61.4,24.4
				c-0.7,1.4-1.3,2.9-1.8,4.4c-1.9-5-2.3-12.4-2.3-12.4c-3.7,9.7,0,21.8,0,21.8h0c-0.1,0.4-0.1,0.7-0.2,1.1c-4.3,3.7-8,15.1-8,15.1
				c1.3-3.2,4.5-5.3,7.4-6.6c-0.1,17.5,7,34.6,19.4,39.6c18.2,7.4,18,1.8,36.3,13.9c0,0,4.9-6.1,1.6-10.2c-3.3-4.1-16-10-8.9-16
				c7.1-5.9,9.7,0.7,12.3-3.3c2.6-4.1-10.4-16,6.3-27.1C1514.1,1039.6,1525.2,1024,1523.7,1013.9z"/>
		</g>
		<path class="st18" d="M2591.7,1819.1c0,0-21-31-53.8-28.5c-10,0.8-26.2,3.2-45,5.8c-14.2-49.6-53.4-167.4-106.2-174
			c-53.9-6.8,51.6,124.3,94.8,175.6c-7.9,1-16,2-24.3,2.9c-22.9-24.4-62.7-60.5-95.9-57.8c-33.3,2.8,29.1,37.2,74.1,59.8
			c-27.6,2.1-53.8,1.8-69.9-4.4c-39.2-15.2-75.3,20.6-75.3,20.6H2591.7z"/>
	</g>
</g>
</svg>
